:SAMPLES-PER-SECOND 30
:FULLY-SPECIFIED
:DEGREES
492
root  -3.66128 40.5133 -2.29739 -3.91647 -56.3266 4.60393
RightUpLeg  5.8492 -3.51886 2.08561
RightLeg  -0.877853 -51.294 2.68902
RightFoot  -6.4071 -0.132559 2.01429
RightToes  -3.13006e-008 1.75238e-005 3.56266e-009
Spine  -5.57634 5.21184 3.62089
Spine1  14.4941 8.55705 -9.33654
HEad  -11.5081 -23.1152 3.86802
LeftShoulder1  3.25209 -5.8288 -28.8032
LeftArm  -23.5429 16.8427 -46.3009
LeftForeArm  154.902 -60.6222 -161.005
LeftHand  -0.96789 -3.88318 12.3625
RightShoulder  4.37546 8.75455 29.7603
RightArm  1.24565 10.1355 41.8779
RightForeArm  136.937 75.3128 137.21
RightHand  -0.85361 8.99742 -7.254
LeftUpLeg  -5.41541 -1.75848 2.947
LeftLeg  3.72917 -17.5372 0.423302
LeftFoot  -0.0985972 0.809141 -8.20658
LeftToes  4.76866e-008 1.46233e-008 1.30548e-009
493
root  -3.66816 40.5245 -2.21434 -4.07713 -56.7461 4.65506
RightUpLeg  6.04245 -3.61756 1.91216
RightLeg  -0.86608 -50.8012 2.69596
RightFoot  -6.39996 -0.128925 1.98244
RightToes  -3.13006e-008 1.75238e-005 3.56266e-009
Spine  -6.65869 5.21572 2.81662
Spine1  15.6937 8.33072 -8.06271
HEad  -10.9225 -22.63 2.81449
LeftShoulder1  3.44903 -6.18624 -29.572
LeftArm  -20.0389 11.8056 -46.3802
LeftForeArm  156.16 -61.3204 -160.607
LeftHand  -0.930863 -3.54555 12.3197
RightShoulder  4.39915 8.75402 29.959
RightArm  0.943394 8.74025 41.3431
RightForeArm  136.191 75.3416 136.969
RightHand  -0.860627 8.6226 -7.48552
LeftUpLeg  -5.14739 -1.77845 2.84257
LeftLeg  3.75095 -17.1108 0.459517
LeftFoot  -0.171125 0.780723 -7.966
LeftToes  4.76866e-008 1.46233e-008 1.30548e-009
494
root  -3.67391 40.5265 -2.1277 -4.10104 -57.0063 4.5815
RightUpLeg  6.10865 -3.71871 1.79104
RightLeg  -0.514073 -50.432 2.46249
RightFoot  -6.44869 -0.136478 2.16857
RightToes  -3.13006e-008 1.75238e-005 3.56266e-009
Spine  -6.93071 4.8897 2.61889
Spine1  15.5674 7.95585 -7.97219
HEad  -10.4944 -22.322 2.75677
LeftShoulder1  3.59408 -6.53296 -29.7931
LeftArm  -16.5467 7.2186 -46.4036
LeftForeArm  156.45 -61.6607 -160.375
LeftHand  -0.902049 -3.74601 11.698
RightShoulder  4.50181 8.86464 30.4756
RightArm  0.950991 6.56739 41.1222
RightForeArm  136.949 75.3359 137.141
RightHand  -0.864136 8.81947 -7.41801
LeftUpLeg  -5.04341 -1.89665 2.78002
LeftLeg  4.00668 -16.7477 0.452127
LeftFoot  -0.405191 0.754242 -7.84648
LeftToes  4.76866e-008 1.46233e-008 1.30548e-009
495
root  -3.68766 40.5238 -2.03782 -4.22337 -57.0357 4.63852
RightUpLeg  6.13274 -3.80019 1.6496
RightLeg  -0.0143082 -50.3662 2.02515
RightFoot  -6.49534 -0.150516 2.51215
RightToes  -3.13006e-008 1.75238e-005 3.56266e-009
Spine  -7.13757 4.2469 2.03255
Spine1  15.4126 7.17301 -7.50186
HEad  -9.96474 -20.6843 2.07681
LeftShoulder1  3.6929 -6.7136 -30.127
LeftArm  -14.006 2.97523 -46.487
LeftForeArm  156.104 -61.8008 -160.234
LeftHand  -0.954155 -4.69872 11.2624
RightShoulder  4.58958 8.96607 30.8902
RightArm  1.43597 4.82606 40.7974
RightForeArm  136.817 75.2944 137.239
RightHand  -0.803087 8.65284 -6.99955
LeftUpLeg  -4.98458 -2.05884 2.63387
LeftLeg  4.28362 -16.5602 0.374412
LeftFoot  -0.564723 0.721071 -7.60296
LeftToes  4.76866e-008 1.46233e-008 1.30548e-009
496
root  -3.70821 40.5336 -1.94717 -4.34657 -57.17 4.75267
RightUpLeg  6.25402 -3.88242 1.46516
RightLeg  0.0168083 -50.1672 1.98257
RightFoot  -6.48748 -0.154008 2.59613
RightToes  -3.13006e-008 1.75238e-005 3.56266e-009
Spine  -7.48479 3.58442 0.798901
Spine1  15.2311 6.17119 -6.25148
HEad  -9.49026 -19.2307 1.15196
LeftShoulder1  3.85855 -7.05316 -30.5464
LeftArm  -12.4145 0.0641064 -46.7484
LeftForeArm  156.797 -62.0746 -160.085
LeftHand  -0.860044 -5.40465 9.53809
RightShoulder  4.57307 8.90961 30.9241
RightArm  2.09691 2.98758 41.051
RightForeArm  137.491 75.2808 137.417
RightHand  -0.796522 8.6887 -6.92861
LeftUpLeg  -4.79828 -2.01497 2.49844
LeftLeg  4.23477 -16.4695 0.333701
LeftFoot  -0.587245 0.701424 -7.40929
LeftToes  4.76866e-008 1.46233e-008 1.30548e-009
